<svg width="557" height="561" viewBox="0 0 557 561" fill="none" xmlns="http://www.w3.org/2000/svg">
<path opacity="0.4" d="M326.318 213.55C319.289 210.066 314.244 209.995 311.185 213.266C308.042 216.536 306.554 222.082 306.554 229.831V271.779C306.554 279.742 305.727 286.354 303.99 291.615C302.253 297.09 299.359 300.929 295.39 303.204C291.503 305.55 286.21 306.119 279.512 305.053C272.979 304.057 264.792 301.071 255.034 296.237L250.403 293.89V260.83L256.274 263.745C263.304 267.229 267.935 267.655 270.25 265.167C272.731 262.679 273.971 257.56 273.971 249.81V212.839C273.971 203.17 275.046 195.562 277.279 190.017C279.429 184.4 283.812 180.845 290.345 179.281C283.812 171.247 279.429 163.284 277.279 155.534C275.129 147.785 274.054 139.111 274.054 129.442V92.4709C274.054 84.7213 272.814 78.3225 270.333 73.4168C268.017 68.5821 263.304 64.3874 256.357 60.9036L250.486 57.9886V24.9282L255.117 27.2744C264.875 32.1091 273.062 37.2992 279.595 42.7737C286.293 48.3193 291.586 54.1493 295.472 60.4059C299.524 66.6625 302.419 73.3457 304.073 80.5265C305.809 87.4941 306.636 94.9593 306.636 102.922V144.87C306.636 152.619 308.208 159.729 311.267 166.057C314.41 172.385 319.454 177.361 326.401 180.774L326.318 213.55Z" fill="url(#paint0_linear_1_421)"/>
<path opacity="0.4" d="M149.183 92.0443C156.212 95.528 161.257 95.5992 164.316 92.3287C167.459 89.0582 168.947 83.5126 168.947 75.7629V33.8153C168.947 25.8524 169.774 19.2403 171.511 13.9791C173.247 8.5046 176.059 4.66533 179.946 2.31911C183.998 0.0439917 189.29 -0.524789 195.823 0.470577C202.522 1.53704 210.791 4.52314 220.55 9.42887L225.18 11.7751V44.8355L219.309 41.9205C212.28 38.4367 207.566 37.939 205.085 40.4274C202.77 42.9869 201.612 48.106 201.612 55.9267V92.8974C201.612 102.496 200.537 110.174 198.304 115.72C196.154 121.336 191.771 124.891 185.238 126.456C191.771 134.49 196.154 142.452 198.304 150.202C200.454 157.952 201.529 166.626 201.529 176.295V213.266C201.529 221.015 202.687 227.343 205.003 232.249C207.484 237.154 212.197 241.42 219.226 244.833L225.098 247.748V280.808L220.467 278.462C210.709 273.628 202.439 268.366 195.741 262.892C189.208 257.417 183.915 251.587 179.863 245.26C175.976 239.074 173.165 232.391 171.511 225.281C169.774 218.314 168.947 210.848 168.947 202.885V160.938C168.947 153.188 167.376 146.078 164.316 139.751C161.174 133.423 156.129 128.446 149.183 125.034V92.0443Z" fill="url(#paint1_linear_1_421)"/>
<path opacity="0.15" d="M350.217 9.14453L524.788 95.8125L524.705 455.637L350.134 369.04L350.217 9.14453Z" fill="url(#paint2_linear_1_421)"/>
<path d="M317.387 56.2822L456.316 125.176V158.236L317.387 89.3426V56.2822Z" fill="#587298"/>
<path opacity="0.2" d="M372.959 209.355L504.611 274.694V374.728L372.959 309.39V209.355Z" fill="url(#paint3_linear_1_421)"/>
<path opacity="0.15" d="M371.635 132.641L505.272 198.975V210.279L371.635 143.945V132.641Z" fill="white"/>
<path opacity="0.15" d="M371.635 155.392L487.161 212.697V224.001L371.635 166.697V155.392Z" fill="white"/>
<path opacity="0.15" d="M371.635 177.859L469.712 226.49V237.794L371.635 189.164V177.859Z" fill="white"/>
<path opacity="0.2" d="M350.217 9.14453L524.788 95.8125V144.017L350.134 57.4198L350.217 9.14453Z" fill="url(#paint4_linear_1_421)"/>
<path opacity="0.2" d="M393.798 55.2157C393.798 62.5388 388.836 65.9514 382.716 62.8942C376.597 59.8371 371.635 51.5186 371.635 44.1956C371.635 36.8725 376.597 33.4598 382.716 36.517C388.836 39.5742 393.798 47.9638 393.798 55.2157Z" fill="white"/>
<path opacity="0.15" d="M35.6419 119.346L573 385.962L572.917 746L35.5592 479.384L35.6419 119.346Z" fill="url(#paint5_linear_1_421)"/>
<path d="M0 208.075L138.846 276.969V310.029L0 241.207V208.075Z" fill="#EA8C4F"/>
<path opacity="0.15" d="M71.8623 298.938L380.153 451.94V463.245L71.8623 310.243V298.938Z" fill="white"/>
<path opacity="0.15" d="M71.8623 321.69L337.812 453.647V464.951L71.8623 332.994V321.69Z" fill="white"/>
<path opacity="0.15" d="M71.8623 344.227L298.201 456.562V467.866L71.8623 355.532V344.227Z" fill="white"/>
<path opacity="0.2" d="M279.926 487.56L551.003 622.077V722.111L279.926 587.594V487.56Z" fill="url(#paint6_linear_1_421)"/>
<path opacity="0.15" d="M300.352 517.492L341.204 537.755V570.815L300.352 550.553V517.492Z" fill="white"/>
<path opacity="0.15" d="M350.383 543.94L391.235 564.203V597.264L350.383 577.001V543.94Z" fill="white"/>
<path opacity="0.2" d="M21.4178 355.461L247.095 467.44V567.474L21.4178 455.424V355.461Z" fill="url(#paint7_linear_1_421)"/>
<path opacity="0.15" d="M44.1591 392.361L223.444 481.304V492.608L44.1591 403.665V392.361Z" fill="white"/>
<path opacity="0.15" d="M44.1591 415.112L187.719 486.352V497.656L44.1591 426.345V415.112Z" fill="white"/>
<path opacity="0.2" d="M35.6416 119.346L572.255 385.678V434.45L35.6416 168.19V119.346Z" fill="url(#paint8_linear_1_421)"/>
<path opacity="0.2" d="M94.108 172.74C94.108 180.063 89.1462 183.476 83.0267 180.419C76.9072 177.362 71.9455 169.043 71.9455 161.72C71.9455 154.397 76.9072 150.985 83.0267 154.042C89.1462 157.099 94.108 165.488 94.108 172.74Z" fill="white"/>
<defs>
<linearGradient id="paint0_linear_1_421" x1="373.919" y1="14.9501" x2="266.832" y2="230.877" gradientUnits="userSpaceOnUse">
<stop stop-color="#424C57"/>
<stop offset="0.903" stop-color="white" stop-opacity="0"/>
</linearGradient>
<linearGradient id="paint1_linear_1_421" x1="295.726" y1="1.2648" x2="188.624" y2="217.171" gradientUnits="userSpaceOnUse">
<stop stop-color="#414B56"/>
<stop offset="0.903" stop-color="white" stop-opacity="0"/>
</linearGradient>
<linearGradient id="paint2_linear_1_421" x1="528.071" y1="97.4473" x2="396.081" y2="363.423" gradientUnits="userSpaceOnUse">
<stop stop-color="white"/>
<stop offset="1" stop-color="white" stop-opacity="0"/>
</linearGradient>
<linearGradient id="paint3_linear_1_421" x1="463.993" y1="254.48" x2="427.309" y2="328.402" gradientUnits="userSpaceOnUse">
<stop stop-color="white"/>
<stop offset="1" stop-color="white" stop-opacity="0"/>
</linearGradient>
<linearGradient id="paint4_linear_1_421" x1="410.071" y1="9.89212" x2="450.587" y2="143.31" gradientUnits="userSpaceOnUse">
<stop stop-color="#424C58"/>
<stop offset="1" stop-color="white" stop-opacity="0"/>
</linearGradient>
<linearGradient id="paint5_linear_1_421" x1="394.942" y1="297.611" x2="325.031" y2="438.524" gradientUnits="userSpaceOnUse">
<stop stop-color="white"/>
<stop offset="1" stop-color="white" stop-opacity="0"/>
</linearGradient>
<linearGradient id="paint6_linear_1_421" x1="440.682" y1="567.317" x2="403.998" y2="641.24" gradientUnits="userSpaceOnUse">
<stop stop-color="white"/>
<stop offset="1" stop-color="white" stop-opacity="0"/>
</linearGradient>
<linearGradient id="paint7_linear_1_421" x1="159.435" y1="423.917" x2="122.751" y2="497.84" gradientUnits="userSpaceOnUse">
<stop stop-color="#434D58"/>
<stop offset="1" stop-color="white" stop-opacity="0"/>
</linearGradient>
<linearGradient id="paint8_linear_1_421" x1="168.787" y1="80.0478" x2="330.284" y2="398.241" gradientUnits="userSpaceOnUse">
<stop stop-color="#546F94"/>
<stop offset="1" stop-color="white" stop-opacity="0"/>
</linearGradient>
</defs>
</svg>
